<?xml version="1.0" standalone="no"?>
<!DOCTYPE svg PUBLIC "-//W3C//DTD SVG 20010904//EN"
 "http://www.w3.org/TR/2001/REC-SVG-20010904/DTD/svg10.dtd">
<svg version="1.0" xmlns="http://www.w3.org/2000/svg"
 width="700.000000pt" height="700.000000pt" viewBox="0 0 700.000000 700.000000"
 preserveAspectRatio="xMidYMid meet">
<metadata>
Created by potrace 1.14, written by Peter Selinger 2001-2017
</metadata>
<g transform="translate(0.000000,700.000000) scale(0.100000,-0.100000)"
fill="#000000" stroke="none">
<path d="M3280 6993 c-19 -1 -87 -8 -150 -14 -507 -48 -1041 -231 -1486 -509
-1421 -891 -2009 -2649 -1412 -4228 61 -161 206 -454 298 -600 157 -251 395
-535 609 -729 558 -504 1225 -804 1986 -893 155 -18 460 -24 620 -11 496 39
907 152 1330 366 217 109 341 186 528 326 1022 766 1543 2030 1361 3299 -84
588 -315 1141 -673 1615 -666 880 -1709 1393 -2811 1383 -91 -1 -181 -3 -200
-5z m2254 -2295 c21 -401 20 -410 -34 -1008 -28 -311 -53 -566 -54 -568 -6 -6
-452 -19 -457 -13 -4 3 -47 263 -97 576 l-91 570 -8 263 c-4 144 -8 263 -8
263 0 2 587 25 682 27 l61 2 6 -112z m-2085 6 c638 -74 1003 -394 1107 -969
25 -140 26 -483 1 -607 -108 -540 -480 -851 -1128 -943 -57 -8 -194 -19 -304
-25 -227 -12 -1637 -61 -1641 -57 -5 6 -90 2553 -85 2558 9 9 1380 56 1671 58
166 1 288 -4 379 -15z m2115 -1976 c3 -62 8 -197 12 -299 l6 -186 -213 -7
c-118 -3 -269 -9 -335 -12 l-122 -7 -7 249 c-4 137 -8 271 -9 299 l-1 50 275
11 c151 6 300 11 331 12 l57 2 6 -112z"/>
<path d="M2452 4144 c-184 -7 -336 -15 -340 -18 -6 -7 36 -1384 44 -1423 4
-21 7 -22 107 -17 56 3 283 11 504 19 296 11 431 20 515 34 330 57 502 192
574 451 28 100 26 395 -4 503 -52 188 -141 303 -294 375 -198 95 -349 105
-1106 76z"/>
</g>
</svg>
