<svg width="205" height="42" viewBox="0 0 205 42" fill="none" xmlns="http://www.w3.org/2000/svg">
<ellipse cx="22.0002" cy="21" rx="20.9987" ry="21" fill="white"/>
<path d="M16.0015 16.6398C16.0015 16.6398 23.6354 14.9928 24.8343 14.6076C25.6126 14.3403 26.3369 13.9333 26.9725 13.4062C26.9725 13.4062 27.749 16.3004 28.1095 17.8807C28.47 19.461 29.6318 24.7683 29.6318 24.7683L19.2334 27.3043L18.4836 25.2222C18.4836 25.2222 17.4743 22.2489 16.8522 20.0815L16.0015 16.6398Z" fill="white"/>
<path d="M27.6316 17.6574C27.7717 17.769 27.9363 17.8448 28.1116 17.8781L28.711 20.6015L30.4145 18.1467L30.0767 17.9385L30.0046 17.8927C30.3363 17.0974 30.5855 16.2687 30.3507 15.921C30.0561 15.5045 28.8717 14.2553 28.7893 14.1678C28.3629 13.7056 27.7861 13.8909 27.4689 14.3261C27.324 14.5134 27.1905 14.7095 27.0693 14.9132C27.0693 14.9132 26.1197 16.5685 27.6316 17.6574Z" fill="#1D1D1F"/>
<path d="M14.1002 34.5864C13.5914 33.5453 14.3865 31.8567 14.4071 31.863C14.4875 31.8796 14.6317 31.9025 14.6317 31.9025L14.7717 32.2898C14.7717 32.2898 14.815 32.2898 14.8438 32.2898C17.188 32.7458 19.8391 32.6396 20.3541 32.2669C21.625 31.3508 22.8733 28.9793 23.2668 27.8091C23.2668 27.8091 25.6542 26.4016 27.5493 26.6265C28.9212 26.7827 29.4794 28.0111 29.4732 29.81C29.5639 29.81 30.0685 29.8642 30.0685 29.8642C30.0685 29.8642 30.0253 30.0599 30.017 30.1494C30.0088 30.2389 29.7987 30.4742 29.811 30.5658C29.9614 31.2654 30.2869 32.0233 31.0017 32.3752C33.4921 31.7755 35.8754 29.4165 35.8754 29.4165L34.9361 28.5837C34.2069 29.1875 33.0821 29.6955 32.3323 29.7788C32.3323 29.7788 33.078 24.1904 32.2911 23.443C31.3312 22.5164 29.8914 22.0417 29.0509 22.1687L29.6236 24.7464L19.2335 27.299C19.2335 27.299 18.6546 25.7416 18.4837 25.2169C18.5002 26.4953 17.6329 28.5337 17.2725 28.9376C16.4094 29.9641 14.8644 29.9641 13.8304 29.7288L12.9096 29.5081C12.5187 30.0574 12.165 30.6326 11.8508 31.23C10.5799 34.095 13.1856 35.2901 13.1856 35.2901H33.6033C33.1913 35.134 28.5998 33.7993 24.4656 33.7993C20.6898 33.7993 16.6813 33.9742 14.1002 34.5864Z" fill="#1D1D1F"/>
<path d="M16.6586 23.966H16.7987H16.8419H16.8625H16.914H16.9346H17.0047L17.2972 23.9389H17.3157L17.4063 23.9285H17.4311H17.5196H17.5485L17.635 23.916H17.6679L17.7586 23.9035H17.7874L17.8863 23.8869H17.9089C18.4837 23.7932 19.0934 23.6433 19.3509 23.4038C19.3509 23.4038 20.2778 21.7777 19.4292 21.1448C19.1758 20.9365 18.7844 21.0053 17.5279 21.0511C17.3878 21.0511 17.258 21.0511 17.1385 21.0511H16.9593H16.811H16.7987H16.6586C16.4139 21.0397 16.171 21.0035 15.9335 20.9428H15.8964H15.8697H15.8532L16.8831 20.1787L16.0056 16.637C16.0056 16.637 23.6396 14.9901 24.8384 14.6049H24.859C23.7879 13.6138 22.1812 12.8517 19.5404 13.1266L19.0007 12.6061C19.3159 12.4374 19.4703 12.4166 19.7381 12.1438C18.9142 10.4094 18.5207 8.52723 18.5022 7.49034C19.1202 7.31961 21.5632 7.10307 22.0864 4.36719C22.0864 4.36719 20.3417 5.56856 18.9966 4.87106C16.7142 3.68009 15.1096 5.82466 15.1096 5.82466C15.1096 5.82466 13.5667 5.89129 13.6017 6.8324C13.7088 9.6349 14.5987 11.6899 16.3249 14.0823C14.2217 15.0192 13.1733 15.9291 12.2051 17.3824C10.8909 19.3083 10.2358 21.8693 10.2358 21.8693C10.2358 21.8693 12.0609 24.1097 16.329 24.5761C16.4135 24.2408 16.5927 24.1534 16.6586 23.966Z" fill="#1D1D1F"/>
<path d="M66.3733 22.2169C66.1789 23.1807 65.8468 24.0321 65.377 24.7711C64.9371 25.4791 64.3686 26.1 63.7004 26.6024C63.02 27.1086 62.2551 27.4919 61.4406 27.7349C60.5632 27.9807 59.6551 28.1023 58.7434 28.0964C57.4799 28.0964 56.354 27.8715 55.3658 27.4217C54.3955 26.9851 53.533 26.3437 52.8387 25.5422C52.1584 24.739 51.64 23.7831 51.2836 22.6747C50.9272 21.5663 50.749 20.3454 50.749 19.012C50.749 17.6627 50.9434 16.4337 51.3322 15.3253C51.721 14.2169 52.2718 13.2691 52.9845 12.4819C53.6991 11.6935 54.5779 11.0686 55.5602 10.6506C56.5646 10.2169 57.6904 10 58.9378 10C59.845 10 60.7035 10.1365 61.5135 10.4096C62.3235 10.6667 63.0443 11.0442 63.6761 11.5422C64.3241 12.0402 64.8668 12.6586 65.3041 13.3976C65.7738 14.1613 66.1029 15.0016 66.2761 15.8795H63.8705C63.7448 15.3427 63.5314 14.8299 63.2387 14.3614C62.9673 13.9001 62.6132 13.4918 62.1939 13.1566C61.7506 12.8074 61.2489 12.5382 60.7116 12.3614C60.1003 12.1618 59.4599 12.064 58.8163 12.0723C58.0387 12.0723 57.3098 12.2249 56.6294 12.5301C55.9501 12.8307 55.351 13.2845 54.8799 13.8554C54.3777 14.4337 53.9808 15.1566 53.6892 16.0241C53.4138 16.8916 53.2761 17.8876 53.2761 19.012C53.2761 20.1205 53.4138 21.1084 53.6892 21.9759C53.9646 22.8434 54.3534 23.5823 54.8556 24.1928C55.3577 24.7871 55.949 25.245 56.6294 25.5663C57.3408 25.8779 58.1115 26.034 58.8892 26.0241C60.2985 26.0241 61.4244 25.6707 62.2668 24.9639C63.1253 24.257 63.6923 23.3414 63.9677 22.2169H66.3733ZM74.245 17.1084C74.0272 17.0773 73.8084 17.0532 73.5889 17.0361C73.3949 17.0208 73.2004 17.0127 73.0058 17.012C71.9852 17.012 71.2157 17.3173 70.6974 17.9277C70.1952 18.5382 69.9452 19.5582 69.9452 20.988V27.7831H67.7329V14.8193H69.8967V17.0843C70.2206 16.3454 70.6974 15.7831 71.3291 15.3976C71.9771 14.996 72.7304 14.7791 73.5889 14.747H73.9048C74.002 14.747 74.1154 14.755 74.245 14.7711V17.1084ZM76.4585 22.0241C76.4747 22.7309 76.6043 23.3414 76.8473 23.8554C77.0903 24.3695 77.3981 24.8032 77.7707 25.1566C78.1498 25.4882 78.5861 25.7494 79.0585 25.9277C79.5283 26.0884 80.0074 26.1687 80.4933 26.1687C81.4653 26.1687 82.2336 25.9759 82.8006 25.5904C83.3676 25.1888 83.7887 24.6667 84.0641 24.0241H86.3482C86.1998 24.592 85.9532 25.1301 85.6193 25.6145C85.284 26.1079 84.8651 26.5399 84.3812 26.8916C83.8585 27.2801 83.2754 27.5812 82.6548 27.7831C81.955 27.9997 81.2252 28.1054 80.4922 28.0964C79.4554 28.0964 78.5402 27.9277 77.7464 27.5904C76.9785 27.2555 76.291 26.7627 75.7296 26.1446C75.1837 25.5139 74.7636 24.7861 74.4915 24C74.2087 23.1365 74.0688 22.2332 74.0772 21.3253C74.0772 20.2972 74.2392 19.3735 74.5632 18.5542C74.8583 17.7645 75.3131 17.0429 75.8997 16.4337C76.469 15.8486 77.1562 15.3888 77.9165 15.0843C78.71 14.7599 79.561 14.5961 80.4193 14.6024C81.4074 14.6024 82.2984 14.7952 83.0922 15.1807C83.8654 15.5497 84.5398 16.0946 85.0604 16.7711C85.6076 17.4711 86.0045 18.2747 86.2267 19.1325C86.4859 20.0321 86.5831 20.996 86.5183 22.0241H76.4585ZM80.4193 16.4819C79.9333 16.4819 79.4635 16.5542 79.0099 16.6988C78.5617 16.8245 78.1468 17.0466 77.795 17.3494C77.4201 17.6617 77.114 18.0472 76.8959 18.4819C76.6691 18.9478 76.5314 19.502 76.4828 20.1446H84.1856C84.1682 19.6892 84.0695 19.2405 83.894 18.8193C83.7379 18.379 83.4895 17.9766 83.1651 17.6386C82.8316 17.2784 82.4261 16.9912 81.9744 16.7952C81.4855 16.579 80.9545 16.4721 80.4193 16.4819ZM96.0574 21.5422C95.0531 21.6386 94.1459 21.759 93.3359 21.9036C92.526 22.0321 91.8375 22.2008 91.2705 22.4096C90.7036 22.6185 90.2662 22.8755 89.9584 23.1807C89.8073 23.3281 89.6882 23.5046 89.6086 23.6994C89.529 23.8942 89.4905 24.1031 89.4955 24.3133C89.4955 24.9237 89.7154 25.4217 90.1528 25.8072C90.6064 26.1767 91.2289 26.3614 92.0238 26.3614C92.5422 26.3614 93.0444 26.2972 93.5303 26.1687C94.0163 26.0402 94.4444 25.8233 94.8182 25.5181C95.1908 25.1968 95.4893 24.7871 95.7173 24.2892C95.944 23.7751 96.0574 23.1325 96.0574 22.3614V21.5422ZM91.5378 28.0964C90.9442 28.0997 90.3538 28.0103 89.7883 27.8313C89.2736 27.6807 88.7884 27.4444 88.3535 27.1325C87.9485 26.8112 87.6245 26.4177 87.3815 25.9518C87.1482 25.4541 87.0322 24.9102 87.0425 24.3614C87.0425 23.5904 87.2531 22.9478 87.6743 22.4337C88.0955 21.9197 88.6867 21.494 89.4481 21.1566C90.2257 20.8193 91.1571 20.5462 92.2425 20.3373C93.4495 20.1107 94.6655 19.9338 95.8873 19.8072V19.494C95.8873 18.8996 95.8063 18.4016 95.6444 18C95.5199 17.6306 95.3025 17.2989 95.0126 17.0361C94.7506 16.7775 94.4226 16.5943 94.0638 16.506C93.6945 16.3917 93.3097 16.3348 92.9229 16.3373C91.9995 16.3373 91.2786 16.5703 90.7591 17.0361C90.2581 17.4859 89.9827 18.1125 89.9341 18.9157H87.65C87.6868 18.2655 87.8694 17.6316 88.1846 17.0602C88.5085 16.5141 88.9135 16.0562 89.3995 15.6867C89.8855 15.3173 90.4282 15.0361 91.0275 14.8434C91.6325 14.6522 92.2636 14.5547 92.8986 14.5542C94.7129 14.5542 96.0331 14.988 96.8593 15.8554C97.7017 16.7229 98.1148 18.0723 98.0974 19.9036L98.0743 22.8916C98.0581 23.9839 98.0743 24.9237 98.1229 25.7108C98.1877 26.4819 98.2848 27.1727 98.4144 27.7831H96.1789C96.1465 27.5422 96.1141 27.2851 96.0817 27.012C96.0459 26.6756 96.0216 26.3381 96.0088 26C95.6101 26.6688 95.0283 27.2119 94.3311 27.5663C93.6356 27.9197 92.7042 28.0964 91.5378 28.0964ZM100.867 11.5663H103.079V14.8193H105.557V16.5783H103.079V24.2651C103.079 24.6024 103.087 24.8835 103.103 25.1084C103.135 25.3173 103.192 25.4859 103.273 25.6145C103.376 25.7469 103.522 25.8404 103.686 25.8795C103.864 25.9277 104.115 25.9518 104.439 25.9518H105.557V27.7831H103.953C103.322 27.7831 102.803 27.743 102.398 27.6627C102.01 27.5663 101.702 27.4056 101.475 27.1807C101.248 26.9398 101.086 26.6104 100.989 26.1928C100.908 25.759 100.867 25.2048 100.867 24.5301V16.5783H98.8021V14.8193H100.867V11.5663ZM109.43 14.8193V27.7831H107.218V14.8193H109.43ZM109.43 10.3133V12.9639H107.218V10.3133H109.43ZM116.032 24.747L119.58 14.8193H121.864L116.931 27.7831H114.963L110.031 14.8193H112.484L116.032 24.747ZM123.709 22.0241C123.725 22.7309 123.854 23.3414 124.097 23.8554C124.34 24.3695 124.648 24.8032 125.021 25.1566C125.4 25.4882 125.836 25.7494 126.309 25.9277C126.778 26.0884 127.256 26.1687 127.742 26.1687C128.714 26.1687 129.484 25.9759 130.051 25.5904C130.618 25.1888 131.039 24.6667 131.314 24.0241H133.598C133.45 24.592 133.203 25.1301 132.869 25.6145C132.545 26.0964 132.132 26.5221 131.63 26.8916C131.108 27.2799 130.525 27.5811 129.905 27.7831C129.205 27.9997 128.475 28.1054 127.742 28.0964C126.705 28.0964 125.79 27.9277 124.996 27.5904C124.228 27.2555 123.541 26.7627 122.98 26.1446C122.433 25.514 122.013 24.7862 121.74 24C121.458 23.1364 121.318 22.2331 121.327 21.3253C121.327 20.2972 121.489 19.3735 121.813 18.5542C122.108 17.7645 122.563 17.0429 123.15 16.4337C123.719 15.8486 124.406 15.3888 125.167 15.0843C125.96 14.7599 126.811 14.5961 127.669 14.6024C128.657 14.6024 129.548 14.7952 130.342 15.1807C131.115 15.5497 131.79 16.0946 132.31 16.7711C132.858 17.4711 133.255 18.2747 133.477 19.1325C133.736 20.0321 133.833 20.996 133.768 22.0241H123.709ZM127.669 16.4819C127.183 16.4819 126.714 16.5542 126.26 16.6988C125.812 16.8245 125.397 17.0466 125.045 17.3494C124.67 17.6617 124.364 18.0472 124.146 18.4819C123.919 18.9478 123.781 19.502 123.733 20.1446H131.436C131.418 19.6892 131.32 19.2405 131.144 18.8193C130.988 18.379 130.74 17.9766 130.415 17.6386C130.082 17.2784 129.676 16.9912 129.224 16.7952C128.735 16.579 128.205 16.4721 127.669 16.4819ZM141.045 10.3133C142.113 10.3133 143.093 10.3855 143.984 10.5301C144.892 10.6747 145.669 10.9478 146.317 11.3494C146.965 11.7349 147.467 12.2731 147.824 12.9639C148.18 13.6386 148.358 14.5141 148.358 15.5904C148.358 16.6827 148.18 17.5743 147.824 18.2651C147.482 18.9247 146.96 19.4757 146.317 19.8554C145.669 20.241 144.892 20.506 143.984 20.6506C143.093 20.7952 142.113 20.8675 141.045 20.8675H138.007V27.7831H135.528V10.3133H141.045ZM138.007 12.3855V18.7229H141.239C141.887 18.7229 142.486 18.6988 143.037 18.6506C143.604 18.5863 144.09 18.4498 144.495 18.241C144.916 18.0161 145.24 17.7028 145.467 17.3012C145.71 16.8835 145.831 16.3133 145.831 15.5904C145.831 14.8835 145.71 14.3213 145.467 13.9036C145.253 13.483 144.913 13.138 144.495 12.9157C144.09 12.6908 143.604 12.5462 143.037 12.4819C142.44 12.4151 141.839 12.383 141.239 12.3855H138.007ZM150.345 22.0241C150.361 22.7309 150.491 23.3414 150.734 23.8554C150.977 24.3695 151.284 24.8032 151.657 25.1566C152.036 25.4882 152.472 25.7494 152.945 25.9277C153.415 26.0884 153.893 26.1687 154.379 26.1687C155.351 26.1687 156.12 25.9759 156.687 25.5904C157.254 25.1888 157.675 24.6667 157.951 24.0241H160.235C160.086 24.592 159.84 25.1301 159.506 25.6145C159.182 26.0964 158.769 26.5221 158.266 26.8916C157.744 27.2799 157.161 27.5811 156.541 27.7831C155.841 27.9998 155.111 28.1055 154.377 28.0964C153.342 28.0964 152.427 27.9277 151.633 27.5904C150.865 27.2555 150.177 26.7627 149.616 26.1446C149.07 25.514 148.649 24.7862 148.377 24C148.094 23.1364 147.955 22.2331 147.964 21.3253C147.964 20.2972 148.126 19.3735 148.45 18.5542C148.745 17.7645 149.2 17.0429 149.786 16.4337C150.355 15.8486 151.043 15.3888 151.803 15.0843C152.596 14.7599 153.447 14.5961 154.306 14.6024C155.294 14.6024 156.185 14.7952 156.979 15.1807C157.751 15.5498 158.425 16.0948 158.946 16.7711C159.493 17.471 159.891 18.2746 160.113 19.1325C160.372 20.0321 160.47 20.996 160.405 22.0241H150.345ZM154.306 16.4819C153.82 16.4819 153.35 16.5542 152.896 16.6988C152.448 16.8245 152.033 17.0466 151.681 17.3494C151.306 17.6617 151 18.0472 150.782 18.4819C150.556 18.9478 150.418 19.502 150.369 20.1446H158.072C158.055 19.6892 157.956 19.2405 157.78 18.8193C157.624 18.379 157.376 17.9766 157.051 17.6386C156.718 17.2783 156.312 16.991 155.86 16.7952C155.371 16.5792 154.841 16.4722 154.306 16.4819ZM163.449 21.3494C163.449 22.2169 163.554 22.9558 163.765 23.5663C163.992 24.1767 164.283 24.6747 164.64 25.0602C165.012 25.4458 165.433 25.7269 165.903 25.9036C166.373 26.0803 166.859 26.1687 167.361 26.1687C167.863 26.1687 168.349 26.0723 168.819 25.8795C169.289 25.6867 169.702 25.3976 170.058 25.012C170.431 24.6104 170.723 24.1125 170.933 23.5181C171.16 22.9076 171.273 22.1847 171.273 21.3494C171.273 20.4819 171.16 19.743 170.933 19.1325C170.723 18.5221 170.431 18.0241 170.058 17.6386C169.718 17.2642 169.294 16.9751 168.819 16.7952C168.354 16.6192 167.859 16.5294 167.361 16.5301C166.859 16.5301 166.373 16.6185 165.903 16.7952C165.422 16.9634 164.988 17.2445 164.64 17.6145C164.283 18 163.992 18.498 163.765 19.1084C163.554 19.7189 163.449 20.4659 163.449 21.3494ZM167.361 14.6024C168.123 14.6024 168.876 14.739 169.621 15.012C170.37 15.2713 171.057 15.6815 171.638 16.2169C172.237 16.7631 172.715 17.4618 173.071 18.3133C173.444 19.1647 173.63 20.1767 173.63 21.3494C173.63 22.5221 173.444 23.5341 173.071 24.3855C172.715 25.2369 172.237 25.9357 171.638 26.4819C171.053 27.019 170.368 27.4366 169.621 27.7108C168.895 27.9646 168.131 28.095 167.361 28.0964C166.591 28.095 165.827 27.9647 165.101 27.7108C164.354 27.4366 163.669 27.019 163.085 26.4819C162.485 25.9357 161.999 25.2369 161.627 24.3855C161.27 23.5341 161.092 22.5221 161.092 21.3494C161.092 20.1767 161.27 19.1647 161.627 18.3133C161.999 17.4618 162.485 16.7631 163.085 16.2169C163.666 15.6815 164.352 15.2713 165.101 15.012C165.824 14.743 166.589 14.6042 167.361 14.6024ZM177.33 14.8193V16.8675C177.725 16.1863 178.295 15.6209 178.982 15.2289C179.678 14.8112 180.553 14.6024 181.606 14.6024C182.35 14.6008 183.085 14.7594 183.76 15.0673C184.436 15.3752 185.035 15.825 185.518 16.3855C186.037 16.9639 186.442 17.6707 186.733 18.506C187.041 19.3414 187.195 20.2892 187.195 21.3494C187.195 22.4257 187.041 23.3815 186.733 24.2169C186.442 25.0522 186.037 25.759 185.518 26.3374C185.033 26.9033 184.427 27.3558 183.745 27.6627C183.069 27.9508 182.341 28.0984 181.606 28.0964C180.553 28.0964 179.678 27.8956 178.982 27.494C178.297 27.0884 177.729 26.5161 177.33 25.8313V32H175.118V14.8193H177.33ZM177.232 21.3494C177.232 22.2008 177.338 22.9398 177.548 23.5663C177.759 24.1767 178.042 24.6827 178.399 25.0843C178.755 25.4699 179.16 25.759 179.614 25.9518C180.083 26.1285 180.561 26.2169 181.047 26.2169C182.181 26.2169 183.088 25.7992 183.769 24.9639C184.449 24.1125 184.789 22.9076 184.789 21.3494C184.789 19.7912 184.449 18.5944 183.769 17.759C183.088 16.9076 182.181 16.4819 181.047 16.4819C180.561 16.4819 180.083 16.5783 179.614 16.7711C179.144 16.959 178.727 17.2566 178.399 17.6386C178.042 18.0241 177.759 18.5301 177.548 19.1566C177.338 19.7671 177.232 20.498 177.232 21.3494ZM190.837 27.7831H188.626V10.3133H190.837V27.7831ZM194.67 22.0241C194.686 22.7309 194.816 23.3414 195.059 23.8554C195.302 24.3695 195.609 24.8032 195.982 25.1566C196.361 25.4882 196.797 25.7494 197.27 25.9277C197.74 26.0884 198.217 26.1687 198.703 26.1687C199.675 26.1687 200.445 25.9759 201.012 25.5904C201.579 25.1888 202 24.6667 202.275 24.0241H204.559C204.411 24.592 204.164 25.1301 203.831 25.6145C203.507 26.0964 203.093 26.5221 202.591 26.8916C202.069 27.2799 201.486 27.5811 200.866 27.7831C200.166 27.9997 199.436 28.1054 198.703 28.0964C197.667 28.0964 196.751 27.9277 195.958 27.5904C195.19 27.2555 194.502 26.7627 193.941 26.1446C193.395 25.514 192.974 24.7862 192.702 24C192.419 23.1364 192.28 22.2331 192.288 21.3253C192.288 20.2972 192.451 19.3735 192.774 18.5542C193.07 17.7645 193.524 17.0429 194.111 16.4337C194.68 15.8486 195.367 15.3888 196.128 15.0843C196.921 14.7599 197.772 14.5961 198.631 14.6024C199.619 14.6024 200.51 14.7952 201.303 15.1807C202.077 15.5497 202.751 16.0946 203.272 16.7711C203.819 17.4711 204.216 18.2747 204.438 19.1325C204.697 20.0321 204.794 20.996 204.73 22.0241H194.67ZM198.631 16.4819C198.145 16.4819 197.675 16.5542 197.221 16.6988C196.773 16.8245 196.358 17.0466 196.006 17.3494C195.631 17.6617 195.325 18.0472 195.107 18.4819C194.88 18.9478 194.743 19.502 194.694 20.1446H202.397C202.379 19.6892 202.281 19.2405 202.105 18.8193C201.949 18.379 201.701 17.9766 201.376 17.6386C201.043 17.2784 200.637 16.9912 200.186 16.7952C199.697 16.579 199.166 16.4721 198.631 16.4819Z" fill="white"/>
</svg>
