<svg width="194" height="20" viewBox="0 0 194 20" fill="none" xmlns="http://www.w3.org/2000/svg">
<path d="M0.749023 19.5522V0H4.83865V6.41721H4.98471C5.23788 5.95948 5.59815 5.54155 6.06554 5.16342C7.13663 4.30765 8.33431 3.87977 9.65857 3.87977C11.5086 3.87977 12.94 4.42706 13.9527 5.52164C14.9848 6.61623 15.5009 8.20835 15.5009 10.298V19.5522H11.4113V10.8951C11.4113 9.78057 11.1386 8.93476 10.5933 8.35761C10.0675 7.76057 9.31777 7.46204 8.34405 7.46204C7.37033 7.46204 6.54266 7.84017 5.86106 8.59643C5.17945 9.35269 4.83865 10.3179 4.83865 11.4921V19.5522H0.749023Z" fill="white"/>
<path fill-rule="evenodd" clip-rule="evenodd" d="M114.79 11.9399C114.79 14.1888 115.56 16.0993 117.098 17.6715C118.656 19.2238 120.565 20 122.824 20C125.453 20 127.546 19.1044 129.104 17.3133C129.747 16.5371 130.234 15.6416 130.565 14.6266H126.183C126.008 14.9649 125.774 15.2634 125.482 15.5222C124.742 16.1192 123.856 16.4177 122.824 16.4177C121.889 16.4177 121.061 16.0695 120.341 15.3729C119.62 14.6764 119.182 13.8305 119.026 12.8355H130.711V11.9399C130.711 9.67112 129.971 7.76057 128.491 6.20825C127.011 4.65594 125.122 3.87978 122.824 3.87978C120.565 3.87978 118.656 4.66589 117.098 6.23811C115.56 7.79043 114.79 9.69102 114.79 11.9399ZM126.329 10.298H119.172C119.406 9.48205 119.844 8.8054 120.487 8.26806C121.129 7.73072 121.908 7.46205 122.824 7.46205C123.739 7.46205 124.508 7.74067 125.131 8.29791C125.774 8.83525 126.173 9.50196 126.329 10.298Z" fill="white"/>
<path fill-rule="evenodd" clip-rule="evenodd" d="M131.576 11.9399C131.576 14.348 132.228 16.2983 133.533 17.7909C134.857 19.2636 136.493 20 138.44 20C139.745 20 140.923 19.602 141.975 18.8059C142.423 18.4278 142.803 18.0298 143.114 17.6118H143.26V19.5522H147.35V4.32756H143.26V6.26796H143.114C142.803 5.85002 142.423 5.452 141.975 5.07387C140.923 4.27781 139.745 3.87978 138.44 3.87978C136.493 3.87978 134.857 4.62608 133.533 6.1187C132.228 7.59141 131.576 9.53181 131.576 11.9399ZM135.811 11.9399C135.811 10.5468 136.152 9.4522 136.834 8.65614C137.515 7.86008 138.392 7.46205 139.463 7.46205C140.592 7.46205 141.508 7.86008 142.209 8.65614C142.91 9.4323 143.26 10.5269 143.26 11.9399C143.26 13.3529 142.91 14.4574 142.209 15.2535C141.508 16.0297 140.592 16.4177 139.463 16.4177C138.392 16.4177 137.515 16.0197 136.834 15.2236C136.152 14.4276 135.811 13.333 135.811 11.9399Z" fill="white"/>
<path d="M149.687 4.32756H153.777V6.41722H153.923C154.195 5.91968 154.526 5.50175 154.916 5.16343C155.87 4.30766 157 3.87978 158.304 3.87978C159.862 3.87978 161.167 4.35741 162.219 5.31268C162.647 5.73062 162.998 6.1983 163.27 6.71574H163.416C163.689 6.1983 164.04 5.73062 164.468 5.31268C165.52 4.35741 166.776 3.87978 168.236 3.87978C170.028 3.87978 171.42 4.43702 172.414 5.5515C173.426 6.64609 173.933 8.22826 173.933 10.298V19.5522H169.843V10.7458C169.843 8.55663 168.918 7.46205 167.068 7.46205C166.172 7.46205 165.413 7.82028 164.789 8.53673C164.166 9.25319 163.855 10.1886 163.855 11.3428V19.5522H159.765V10.7458C159.765 8.55663 158.84 7.46205 156.99 7.46205C156.094 7.46205 155.335 7.82028 154.711 8.53673C154.088 9.25319 153.777 10.1886 153.777 11.3428V19.5522H149.687V4.32756Z" fill="white"/>
<path d="M108.09 1.04361H104.001V16.0409C104.001 17.98 105.551 19.552 107.462 19.552H114.22V15.9697H108.09V7.90964H114.045V4.32736H108.09V1.04361Z" fill="white"/>
<path fill-rule="evenodd" clip-rule="evenodd" d="M60.8008 19.5522V0H64.8905V6.26795H65.0365C65.3481 5.85002 65.7279 5.45199 66.1758 5.07386C67.2274 4.2778 68.4056 3.87977 69.7104 3.87977C71.6578 3.87977 73.2839 4.62608 74.5887 6.11869C75.913 7.5914 76.5751 9.5318 76.5751 11.9399C76.5751 14.348 75.913 16.2983 74.5887 17.7909C73.2839 19.2636 71.6578 20 69.7104 20C68.4056 20 67.2274 19.602 66.1758 18.8059C65.7279 18.4278 65.3481 18.0297 65.0365 17.6118H64.8905V19.5522H60.8008ZM65.9421 8.65613C65.241 9.43229 64.8905 10.5269 64.8905 11.9399C64.8905 13.3529 65.241 14.4574 65.9421 15.2535C66.6432 16.0296 67.5585 16.4177 68.688 16.4177C69.7591 16.4177 70.6354 16.0197 71.317 15.2236C71.9986 14.4276 72.3394 13.333 72.3394 11.9399C72.3394 10.5468 71.9986 9.4522 71.317 8.65613C70.6354 7.86007 69.7591 7.46204 68.688 7.46204C67.5585 7.46204 66.6432 7.86007 65.9421 8.65613Z" fill="white"/>
<path d="M34.3769 19.5522V4.32755H38.4665V6.41721H38.6125C38.8852 5.91968 39.2163 5.50174 39.6057 5.16342C40.56 4.30765 41.6895 3.87977 42.9943 3.87977C44.5522 3.87977 45.857 4.35741 46.9086 5.31268C47.3371 5.73061 47.6876 6.1983 47.9603 6.71574H48.1063C48.379 6.1983 48.7295 5.73061 49.1579 5.31268C50.2096 4.35741 51.4657 3.87977 52.9263 3.87977C54.7179 3.87977 56.1103 4.43701 57.1035 5.5515C58.1162 6.64608 58.6225 8.22825 58.6225 10.298V19.5522H54.5329V10.7458C54.5329 8.55663 53.6079 7.46204 51.7578 7.46204C50.862 7.46204 50.1025 7.82027 49.4793 8.53673C48.8561 9.25318 48.5445 10.1886 48.5445 11.3428V19.5522H44.4549V10.7458C44.4549 8.55663 43.5298 7.46204 41.6798 7.46204C40.7839 7.46204 40.0244 7.82027 39.4013 8.53673C38.7781 9.25318 38.4665 10.1886 38.4665 11.3428V19.5522H34.3769Z" fill="white"/>
<path d="M78.1817 16.0411C78.1817 17.9802 79.7316 19.5522 81.6434 19.5522H85.6307V15.9699H82.2714V0H78.1817V16.0411Z" fill="white"/>
<path fill-rule="evenodd" clip-rule="evenodd" d="M88.0936 17.6715C86.5551 16.0993 85.7859 14.1888 85.7859 11.9399C85.7859 9.69101 86.5551 7.79042 88.0936 6.2381C89.6516 4.66588 91.5601 3.87977 93.8191 3.87977C96.1171 3.87977 98.0061 4.65593 99.4862 6.20825C100.966 7.76057 101.706 9.67111 101.706 11.9399V12.8355H90.0216C90.1774 13.8305 90.6156 14.6763 91.3361 15.3729C92.0567 16.0694 92.8843 16.4177 93.8191 16.4177C94.8512 16.4177 95.7373 16.1192 96.4774 15.5222C96.7695 15.2634 97.0032 14.9649 97.1785 14.6266H101.56C101.229 15.6416 100.742 16.5371 100.1 17.3133C98.5416 19.1044 96.4481 20 93.8191 20C91.5601 20 89.6516 19.2238 88.0936 17.6715ZM90.1676 10.298H97.3245C97.1687 9.50195 96.7695 8.83525 96.1268 8.29791C95.5036 7.74066 94.7344 7.46204 93.8191 7.46204C92.9038 7.46204 92.1248 7.73071 91.4822 8.26805C90.8395 8.8054 90.4013 9.48205 90.1676 10.298Z" fill="white"/>
<path d="M32.3591 4.32606H28.3039V12.0506L28.3015 12.0505C28.2796 13.1225 28.1036 14.0086 27.4677 14.709C26.7828 15.4632 25.9398 15.8404 24.9388 15.8404C23.9378 15.8404 23.0949 15.4632 22.4099 14.709C21.774 14.0086 21.658 13.1226 21.6428 12.0506V4.32606H17.5629V12.5522H17.5666C17.6224 14.4731 18.3237 16.1135 19.6703 17.4733C21.0752 18.8741 22.8314 19.5745 24.9388 19.5745C27.0287 19.5745 28.776 18.8741 30.181 17.4733C31.5445 16.1135 32.3025 14.4731 32.3591 12.5522V4.32606Z" fill="white"/>
<ellipse cx="185.337" cy="11.5165" rx="7.91241" ry="8.02552" fill="#FF611D"/>
</svg>
