<svg width="343" height="332" viewBox="0 0 343 332" fill="none" xmlns="http://www.w3.org/2000/svg">
<path fill-rule="evenodd" clip-rule="evenodd" d="M29.0926 10.4967C22.3544 10.4967 15.5584 12.5606 11.2581 17.7482C4.22667 26.2303 0 37.1216 0 49V283.004C0 310.066 21.938 332.004 49 332.004H294C302.274 332.004 310.07 329.953 316.905 326.332C324.243 322.445 327.469 314.081 327.469 305.778V296.838V261.673V197.451V112.898C327.469 103.265 330.193 94.2672 334.914 86.6346C339.234 79.6499 343 72.0295 343 63.8168V49C343 21.938 321.062 0 294 0H210.871C204.204 0 197.863 2.50683 191.874 5.43664C185.249 8.67751 177.802 10.4967 169.93 10.4967H29.0926Z" fill="white"/>
</svg>
