<svg width="326" height="303" viewBox="0 0 326 303" fill="none" xmlns="http://www.w3.org/2000/svg">
<path fill-rule="evenodd" clip-rule="evenodd" d="M4.51864 177.184C2.07688 182.728 0 188.539 0 194.597V273C0 289.569 13.4315 303 30 303H81.4645C89.3167 303 96.6474 299.549 103.417 295.571C110.838 291.211 119.482 288.711 128.711 288.711H296C312.569 288.711 326 275.279 326 258.711V255.67C326 252.973 325.645 250.283 324.889 247.694C321.966 237.682 319.106 230.02 316.642 223.423C312.27 211.711 309.148 203.351 309.148 191.139C309.148 178.794 312.787 170.286 316.942 160.572C319.825 153.832 322.956 146.511 325.292 136.925C325.792 134.874 326 132.766 326 130.655V30C326 13.4315 312.569 0 296 0H38.7382C22.1696 0 8.73816 13.4315 8.73816 30V157.049C8.73816 164.212 7.23183 171.024 4.51864 177.184Z" fill="white"/>
</svg>
