<svg width="32" height="26" viewBox="0 0 32 26" fill="none" xmlns="http://www.w3.org/2000/svg">
<path id="Vector" d="M8.12173 15.0722L1.12073 12.8421C1.12073 12.8421 0.284034 12.5102 0.553451 11.7576C0.608912 11.6025 0.72079 11.4704 1.05547 11.2435C2.6067 10.1864 29.7676 0.642276 29.7676 0.642276C29.7676 0.642276 30.5345 0.389633 30.9867 0.557672C31.0986 0.591534 31.1993 0.653846 31.2785 0.738233C31.3577 0.82262 31.4125 0.926052 31.4374 1.03795C31.4862 1.23559 31.5067 1.43894 31.4981 1.6421C31.4959 1.81785 31.4742 1.98075 31.4577 2.2362C31.2923 4.8456 26.3419 24.3204 26.3419 24.3204C26.3419 24.3204 26.0457 25.46 24.9845 25.499C24.7237 25.5072 24.4639 25.4641 24.2206 25.372C23.9772 25.28 23.7553 25.141 23.5681 24.9633C21.4857 23.2121 14.2882 18.4832 12.6977 17.4432C12.6619 17.4193 12.6317 17.3881 12.6091 17.3518C12.5866 17.3156 12.5723 17.275 12.5672 17.2328C12.545 17.1232 12.6669 16.9874 12.6669 16.9874C12.6669 16.9874 25.1997 6.09643 25.5332 4.9531C25.559 4.86453 25.4614 4.82082 25.3304 4.85962C24.498 5.15901 10.0681 14.0679 8.47554 15.0511C8.3609 15.085 8.23973 15.0922 8.12173 15.0722Z" fill="white"/>
</svg>
